<svg width="0" height="0" class="hidden">
  <symbol fill="none" xmlns="http://www.w3.org/2000/svg" viewBox="0 0 28 28" id="water">
    <rect width="28" height="28" rx="4" fill="black"></rect>
    <path d="M20.2904 11.7302L20.2633 11.6935L20.2579 11.6827L17.7931 8.02372L15.3283 11.6828L15.3231 11.693L15.2957 11.7302C14.9002 12.2659 14.6912 12.9023 14.6912 13.5706C14.6912 15.281 16.0827 16.6725 17.7931 16.6725C19.5034 16.6725 20.8949 15.281 20.8949 13.5706C20.895 12.9022 20.6859 12.2658 20.2904 11.7302Z" fill="#FFEBB9"></path>
    <path d="M17.7931 17.7293C15.5 17.7293 13.6344 15.8637 13.6344 13.5705C13.6344 12.6791 13.9121 11.8297 14.4376 11.1133L16.0579 8.70794L13.56 5L8.35563 12.7257C7.53737 13.8392 7.10498 15.1595 7.10498 16.5449C7.10498 20.1043 10.0007 23 13.56 23C16.9325 23 19.7088 20.4002 19.991 17.0994C19.3529 17.4984 18.5996 17.7293 17.7931 17.7293Z" fill="#FFEBB9"></path>
  </symbol>
  <symbol fill="none" xmlns="http://www.w3.org/2000/svg" viewBox="0 0 28 29" id="dog">
    <rect y="0.359375" width="28" height="28" rx="4" fill="black"></rect>
    <path d="M22.8737 18.1643V19.1432C22.8737 19.791 22.4432 20.345 21.8399 20.5613C21.8402 20.586 21.8408 20.6105 21.8408 20.6351V23.3044C23.0952 23.0571 24.0408 21.999 24.0408 20.7351V18.1641L22.8737 18.1643Z" fill="#FFEBB9"></path>
    <path d="M14.7675 10.8077V9.78417C14.7675 8.89818 14.4219 8.03945 13.794 7.36583C13.2062 6.73526 12.4331 6.33459 11.5976 6.22341C11.4127 6.05337 11.075 5.74316 10.7364 5.43353C10.4436 5.16565 10.2096 4.95227 10.0403 4.79934C9.94329 4.71164 9.86196 4.63858 9.80428 4.5877C9.67809 4.47637 9.44341 4.26893 9.09566 4.40302L8.7235 4.54682L8.77233 6.74497L8.68062 6.80788C8.08217 7.21869 7.68132 7.851 7.57833 8.54506L5.98195 9.55673L5.97661 10.2518C5.9728 10.7819 6.18703 11.2809 6.5801 11.657C6.97332 12.0332 7.497 12.2403 8.05501 12.2403H9.27068V13.2595C9.27068 13.7659 9.35628 14.2661 9.52474 14.7465L10.4259 17.3148V21.2159C9.48049 21.4269 8.77309 22.2345 8.77095 23.1957L8.76897 23.3576L12.2484 23.3581C12.3436 22.4924 13.0121 21.7856 13.8855 21.5883V20.908C13.8855 19.0467 15.4793 17.5326 17.4384 17.5326H17.5243V18.6414H17.4384C16.1229 18.6414 15.0527 19.6582 15.0527 20.908V22.642H14.3812C13.9194 22.642 13.5311 22.9483 13.4295 23.3582L20.7081 23.3594V20.6352C20.7081 18.2151 19.7532 15.9058 18.0193 14.1328L14.7675 10.8077Z" fill="#FFEBB9"></path>
  </symbol>
  <symbol fill="none" xmlns="http://www.w3.org/2000/svg" viewBox="0 0 28 29" id="wave">
    <rect y="0.359375" width="28" height="28" rx="4" fill="black"></rect>
    <path d="M22.7969 19.801C22.519 19.6079 22.2745 19.3707 22.0728 19.0989C21.5901 18.5504 20.9758 17.8702 19.8348 17.8702C18.6939 17.8702 18.1015 18.5284 17.5968 19.1209C17.0922 19.7133 16.7631 20.0643 16.0171 20.0643C15.2711 20.0643 14.8981 19.6474 14.4374 19.1209C13.9766 18.5943 13.3622 17.8702 12.1994 17.8702C11.0365 17.8702 10.466 18.5284 9.96136 19.1209C9.45673 19.7133 9.12761 20.0643 8.38162 20.0643C7.63564 20.0643 7.26263 19.6474 6.80188 19.1209C6.48867 18.7072 6.0926 18.3635 5.639 18.1116C5.42087 18.0025 5.15566 18.0909 5.0466 18.309C4.93753 18.5272 5.02593 18.7924 5.24406 18.9014C5.58856 19.1091 5.8932 19.3766 6.14363 19.6913C6.64826 20.2837 7.24066 20.942 8.38162 20.942C9.52258 20.942 10.1149 20.2837 10.6196 19.6913C11.1242 19.0989 11.4534 18.7479 12.1994 18.7479C12.9453 18.7479 13.3184 19.1647 13.7791 19.6913C14.2398 20.2179 14.8542 20.942 16.0171 20.942C17.18 20.942 17.7504 20.2837 18.2551 19.6913C18.7597 19.0989 19.0888 18.7479 19.8348 18.7479C20.5808 18.7479 20.9538 19.1647 21.4146 19.6913C21.6703 20.0196 21.9735 20.308 22.3141 20.547C22.5201 20.6803 22.7952 20.6214 22.9285 20.4153C23.0618 20.2093 23.0029 19.9343 22.7969 19.801Z" fill="#FFEBB9"></path>
    <path d="M22.7969 16.5099C22.519 16.3167 22.2745 16.0796 22.0728 15.8078C21.5901 15.2592 20.9758 14.5791 19.8348 14.5791C18.6939 14.5791 18.1015 15.2373 17.5968 15.8297C17.0922 16.4221 16.7631 16.7732 16.0171 16.7732C15.2711 16.7732 14.8981 16.3563 14.4374 15.8297C13.9766 15.3031 13.3622 14.5791 12.1994 14.5791C11.0365 14.5791 10.466 15.2373 9.96136 15.8297C9.45673 16.4221 9.12761 16.7732 8.38162 16.7732C7.63564 16.7732 7.26263 16.3563 6.80188 15.8297C6.48867 15.4161 6.0926 15.0723 5.639 14.8204C5.42087 14.7114 5.15566 14.7998 5.0466 15.0179C4.93753 15.236 5.02593 15.5012 5.24406 15.6103C5.58856 15.8179 5.8932 16.0854 6.14363 16.4002C6.64826 16.9926 7.24066 17.6508 8.38162 17.6508C9.52258 17.6508 10.1149 16.9926 10.6196 16.4002C11.1242 15.8078 11.4534 15.4567 12.1994 15.4567C12.9453 15.4567 13.3184 15.8736 13.7791 16.4002C14.2398 16.9268 14.8542 17.6508 16.0171 17.6508C17.18 17.6508 17.7504 16.9926 18.2551 16.4002C18.7597 15.8078 19.0888 15.4567 19.8348 15.4567C20.5808 15.4567 20.9538 15.8736 21.4146 16.4002C21.6703 16.7285 21.9735 17.0169 22.3141 17.2558C22.5201 17.3891 22.7952 17.3302 22.9285 17.1242C23.0618 16.9182 23.0029 16.6432 22.7969 16.5099Z" fill="#FFEBB9"></path>
    <path d="M22.7969 12.9992C22.519 12.806 22.2745 12.5689 22.0728 12.2971C21.5901 11.7486 20.9758 11.0684 19.8348 11.0684C18.6939 11.0684 18.1015 11.7266 17.5968 12.3191C17.0922 12.9115 16.7631 13.2625 16.0171 13.2625C15.2711 13.2625 14.8981 12.8456 14.4374 12.3191C13.9766 11.7925 13.3622 11.0684 12.1994 11.0684C11.0365 11.0684 10.466 11.7266 9.96136 12.3191C9.45673 12.9115 9.12761 13.2625 8.38162 13.2625C7.63564 13.2625 7.26263 12.8456 6.80188 12.3191C6.48867 11.9054 6.0926 11.5616 5.639 11.3097C5.42087 11.2007 5.15566 11.2891 5.0466 11.5072C4.93753 11.7253 5.02593 11.9906 5.24406 12.0996C5.58856 12.3072 5.8932 12.5748 6.14363 12.8895C6.64826 13.4819 7.24066 14.1401 8.38162 14.1401C9.52258 14.1401 10.1149 13.4819 10.6196 12.8895C11.1242 12.2971 11.4534 11.946 12.1994 11.946C12.9453 11.946 13.3184 12.3629 13.7791 12.8895C14.2398 13.416 14.8542 14.1401 16.0171 14.1401C17.18 14.1401 17.7504 13.4819 18.2551 12.8895C18.7598 12.297 19.0888 11.946 19.8348 11.946C20.5808 11.946 20.9538 12.3629 21.4146 12.8895C21.6703 13.2178 21.9735 13.5062 22.3141 13.7452C22.5201 13.8785 22.7952 13.8195 22.9285 13.6135C23.0618 13.4076 23.0029 13.1325 22.7969 12.9992Z" fill="#FFEBB9"></path>
    <path d="M5.24424 8.80857C5.58873 9.0162 5.89338 9.28372 6.1438 9.59844C6.64843 10.1908 7.24083 10.8491 8.3818 10.8491C9.52276 10.8491 10.1151 10.1909 10.6198 9.59844C11.1244 9.00604 11.4535 8.65499 12.1995 8.65499C12.9455 8.65499 13.3185 9.07189 13.7793 9.59844C14.24 10.125 14.8544 10.8491 16.0173 10.8491C17.1802 10.8491 17.7506 10.1909 18.2553 9.59844C18.7599 9.00604 19.089 8.65499 19.835 8.65499C20.581 8.65499 20.954 9.07189 21.4147 9.59844C21.6705 9.92677 21.9736 10.2152 22.3143 10.4542C22.5203 10.5875 22.7954 10.5285 22.9287 10.3225C23.062 10.1165 23.0031 9.84143 22.797 9.70813C22.5191 9.51499 22.2746 9.27784 22.073 9.00604C21.5902 8.45752 20.9759 7.77734 19.835 7.77734C18.694 7.77734 18.1016 8.43555 17.597 9.028C17.0923 9.6204 16.7632 9.97145 16.0172 9.97145C15.2712 9.97145 14.8982 9.55455 14.4375 9.028C13.9767 8.50141 13.3624 7.77734 12.1995 7.77734C11.0366 7.77734 10.4662 8.43555 9.96149 9.028C9.45686 9.6204 9.12774 9.97145 8.38175 9.97145C7.63577 9.97145 7.26284 9.55455 6.80205 9.02796C6.48884 8.61429 6.09278 8.27055 5.63917 8.01866C5.42104 7.90959 5.15583 7.99799 5.04677 8.21612C4.9377 8.43425 5.02615 8.6995 5.24424 8.80857Z" fill="#FFEBB9"></path>
  </symbol>
  <symbol fill="none" xmlns="http://www.w3.org/2000/svg" viewBox="0 0 28 29" id="hand">
    <rect y="0.359375" width="28" height="28" rx="4" fill="black"></rect>
    <path d="M13.8822 12.6009C14.0516 12.6636 14.2177 12.5101 14.1616 12.3468C13.7763 11.2255 12.3814 10.8073 11.0848 11.802C10.4027 12.3253 10.1464 12.4365 10.1399 12.4393C10.5896 12.8639 11.1033 14.2888 12.2244 14.4463C13.4593 14.6578 14.5523 13.5103 13.6581 12.9852C13.07 12.6399 12.3776 12.4393 11.6353 12.4393C12.4134 12.2737 13.1902 12.3447 13.8822 12.6009Z" fill="#FFEBB9"></path>
    <path d="M19.4744 11.8019C17.2361 10.0848 15.8086 12.7927 16.6959 12.5243C17.3261 12.3337 18.0151 12.2921 18.7061 12.4393C17.5352 12.4393 16.4559 12.946 15.7363 13.7709C15.7954 12.4746 15.8848 11.6632 15.9884 11.0596C16.5865 11.0402 17.3837 10.584 17.8215 9.78581C18.5762 8.51019 18.2262 7.20226 18.1136 6.37695C17.5238 6.91931 14.9478 6.28381 13.9266 7.93655C13.4754 8.66663 13.6066 9.55504 14.0811 10.2052C14.2313 10.411 14.5905 10.3122 14.6008 10.0625C14.6453 8.97594 15.2179 8.15503 16.2853 7.70036C15.8063 8.28648 15.4918 8.94268 15.3294 9.62092C15.0768 10.6774 14.8131 11.3705 14.7162 14.738C14.7064 15.0795 14.9993 15.3622 15.361 15.3579C15.6229 15.3548 15.8472 15.1979 15.9479 14.9696C16.101 14.6223 16.3503 14.263 16.756 13.9337C17.1414 14.3361 17.728 14.5502 18.335 14.4463C19.4513 14.2894 19.9723 12.8615 20.4194 12.4392C20.4128 12.4365 20.1565 12.3253 19.4744 11.8019Z" fill="#FFEBB9"></path>
    <path d="M22.7649 15.9978C22.0651 15.5494 21.3035 15.8689 20.9538 16.0596L16.5647 19.0936L13.9947 19.0941L13.3523 18.4873H15.7124C16.4222 18.4873 17.2172 18.0507 17.2172 17.2735C17.2172 16.4484 16.4222 16.0596 15.7124 16.0596H14.828C14.1709 16.0596 13.4031 16.115 12.8618 15.8413C12.3474 15.5941 11.7551 15.4534 11.1229 15.4534C10.0612 15.4534 9.11104 15.8531 8.45992 16.4835L5 19.7004L8.85489 23.3411L10.1399 21.5207H16.2119C16.8595 21.5207 17.4846 21.2964 17.9687 20.8902L22.8088 16.8295C23.0779 16.6037 23.0627 16.1887 22.7649 15.9978Z" fill="#FFEBB9"></path>
  </symbol>
  <symbol fill="none" xmlns="http://www.w3.org/2000/svg" viewBox="0 0 28 29" id="building">
    <rect y="0.359375" width="28" height="28" rx="4" fill="black"></rect>
    <path d="M14.9395 18.957H15.8184V21.3594H14.9395V18.957Z" fill="#FFEBB9"></path>
    <path d="M13.1816 18.957H14.0605V21.3594H13.1816V18.957Z" fill="#FFEBB9"></path>
    <path d="M17.459 6.35938H11.541C11.2983 6.35938 11.1016 6.55613 11.1016 6.79883V21.3594H12.3027V18.5176C12.3027 18.2749 12.4995 18.0781 12.7422 18.0781H16.2578C16.5005 18.0781 16.6973 18.2749 16.6973 18.5176V21.3594H17.8984V6.79883C17.8984 6.55613 17.7017 6.35938 17.459 6.35938ZM13.1816 16.7598C13.1816 17.0025 12.9849 17.1992 12.7422 17.1992C12.4995 17.1992 12.3027 17.0025 12.3027 16.7598V15.8809C12.3027 15.6382 12.4995 15.4414 12.7422 15.4414C12.9849 15.4414 13.1816 15.6382 13.1816 15.8809V16.7598ZM13.1816 14.123C13.1816 14.3657 12.9849 14.5625 12.7422 14.5625C12.4995 14.5625 12.3027 14.3657 12.3027 14.123V13.2441C12.3027 13.0014 12.4995 12.8047 12.7422 12.8047C12.9849 12.8047 13.1816 13.0014 13.1816 13.2441V14.123ZM14.9395 16.7598C14.9395 17.0025 14.7427 17.1992 14.5 17.1992C14.2573 17.1992 14.0605 17.0025 14.0605 16.7598V15.8809C14.0605 15.6382 14.2573 15.4414 14.5 15.4414C14.7427 15.4414 14.9395 15.6382 14.9395 15.8809V16.7598ZM14.9395 14.123C14.9395 14.3657 14.7427 14.5625 14.5 14.5625C14.2573 14.5625 14.0605 14.3657 14.0605 14.123V13.2441C14.0605 13.0014 14.2573 12.8047 14.5 12.8047C14.7427 12.8047 14.9395 13.0014 14.9395 13.2441V14.123ZM16.6973 16.7598C16.6973 17.0025 16.5005 17.1992 16.2578 17.1992C16.0151 17.1992 15.8184 17.0025 15.8184 16.7598V15.8809C15.8184 15.6382 16.0151 15.4414 16.2578 15.4414C16.5005 15.4414 16.6973 15.6382 16.6973 15.8809V16.7598ZM16.6973 14.123C16.6973 14.3657 16.5005 14.5625 16.2578 14.5625C16.0151 14.5625 15.8184 14.3657 15.8184 14.123V13.2441C15.8184 13.0014 16.0151 12.8047 16.2578 12.8047C16.5005 12.8047 16.6973 13.0014 16.6973 13.2441V14.123ZM13.1816 11.4863C13.1816 11.729 12.9849 11.9258 12.7422 11.9258C12.4995 11.9258 12.3027 11.729 12.3027 11.4863V10.6074C12.3027 10.3647 12.4995 10.168 12.7422 10.168C12.9849 10.168 13.1816 10.3647 13.1816 10.6074V11.4863ZM14.9395 11.4863C14.9395 11.729 14.7427 11.9258 14.5 11.9258C14.2573 11.9258 14.0605 11.729 14.0605 11.4863V10.6074C14.0605 10.3647 14.2573 10.168 14.5 10.168C14.7427 10.168 14.9395 10.3647 14.9395 10.6074V11.4863ZM16.6973 11.4863C16.6973 11.729 16.5005 11.9258 16.2578 11.9258C16.0151 11.9258 15.8184 11.729 15.8184 11.4863V10.6074C15.8184 10.3647 16.0151 10.168 16.2578 10.168C16.5005 10.168 16.6973 10.3647 16.6973 10.6074V11.4863ZM13.1816 8.84961C13.1816 9.0923 12.9849 9.28906 12.7422 9.28906C12.4995 9.28906 12.3027 9.0923 12.3027 8.84961V7.9707C12.3027 7.72801 12.4995 7.53125 12.7422 7.53125C12.9849 7.53125 13.1816 7.72801 13.1816 7.9707V8.84961ZM14.9395 8.84961C14.9395 9.0923 14.7427 9.28906 14.5 9.28906C14.2573 9.28906 14.0605 9.0923 14.0605 8.84961V7.9707C14.0605 7.72801 14.2573 7.53125 14.5 7.53125C14.7427 7.53125 14.9395 7.72801 14.9395 7.9707V8.84961ZM16.6973 8.84961C16.6973 9.0923 16.5005 9.28906 16.2578 9.28906C16.0151 9.28906 15.8184 9.0923 15.8184 8.84961V7.9707C15.8184 7.72801 16.0151 7.53125 16.2578 7.53125C16.5005 7.53125 16.6973 7.72801 16.6973 7.9707V8.84961Z" fill="#FFEBB9"></path>
    <path d="M21.5605 12.2188H18.7773V21.3594H21.5605C21.8032 21.3594 22 21.1626 22 20.9199V12.6582C22 12.4155 21.8032 12.2188 21.5605 12.2188ZM20.8281 17.9316C20.8281 18.1743 20.6314 18.3711 20.3887 18.3711C20.146 18.3711 19.9492 18.1743 19.9492 17.9316V17.0527C19.9492 16.81 20.146 16.6133 20.3887 16.6133C20.6314 16.6133 20.8281 16.81 20.8281 17.0527V17.9316ZM20.8281 15.2949C20.8281 15.5376 20.6314 15.7344 20.3887 15.7344C20.146 15.7344 19.9492 15.5376 19.9492 15.2949V14.416C19.9492 14.1733 20.146 13.9766 20.3887 13.9766C20.6314 13.9766 20.8281 14.1733 20.8281 14.416V15.2949Z" fill="#FFEBB9"></path>
    <path d="M7.43945 12.2188C7.19676 12.2188 7 12.4155 7 12.6582V20.9199C7 21.1626 7.19676 21.3594 7.43945 21.3594H10.2227V12.2188H7.43945ZM9.05078 17.9316C9.05078 18.1743 8.85402 18.3711 8.61133 18.3711C8.36863 18.3711 8.17188 18.1743 8.17188 17.9316V17.0527C8.17188 16.81 8.36863 16.6133 8.61133 16.6133C8.85402 16.6133 9.05078 16.81 9.05078 17.0527V17.9316ZM9.05078 15.2949C9.05078 15.5376 8.85402 15.7344 8.61133 15.7344C8.36863 15.7344 8.17188 15.5376 8.17188 15.2949V14.416C8.17188 14.1733 8.36863 13.9766 8.61133 13.9766C8.85402 13.9766 9.05078 14.1733 9.05078 14.416V15.2949Z" fill="#FFEBB9"></path>
  </symbol>
  <symbol fill="none" xmlns="http://www.w3.org/2000/svg" viewBox="0 0 24 25" id="Play icon">
    <g filter="url(#filter0_b_1_915)">
      <path d="M0 12.5C0 5.87258 5.37258 0.5 12 0.5C18.6274 0.5 24 5.87258 24 12.5C24 19.1274 18.6274 24.5 12 24.5C5.37258 24.5 0 19.1274 0 12.5Z" fill="white"></path>
    </g>
    <path d="M8.99268 14.2144V10.68C8.99268 9.17335 8.99268 8.42001 9.48339 8.12962C9.97411 7.83922 10.6345 8.20177 11.9552 8.92688L14.9846 10.5901C16.3231 11.3249 16.9924 11.6924 17.0071 12.2668C17.0218 12.8412 16.3722 13.2424 15.0731 14.0448L12.0437 15.916C10.6936 16.7499 10.0185 17.1668 9.50559 16.8807C8.99268 16.5947 8.99268 15.8012 8.99268 14.2144Z" fill="#1D2130"></path>
    <defs>
      <filter id="filter0_b_1_915" x="-80" y="-79.5" width="184" height="184" filterUnits="userSpaceOnUse" color-interpolation-filters="sRGB">
        <feFlood flood-opacity="0" result="BackgroundImageFix"></feFlood>
        <feGaussianBlur in="BackgroundImageFix" stdDeviation="40"></feGaussianBlur>
        <feComposite in2="SourceAlpha" operator="in" result="effect1_backgroundBlur_1_915"></feComposite>
        <feBlend mode="normal" in="SourceGraphic" in2="effect1_backgroundBlur_1_915" result="shape"></feBlend>
      </filter>
    </defs>
  </symbol>
  <symbol fill="none" xmlns="http://www.w3.org/2000/svg" viewBox="0 0 28 28" id="plant">
    <rect width="28" height="28" rx="4" fill="black"></rect>
    <path d="M15.5999 14.0413C15.1837 14.4186 14.7448 14.9294 14.346 15.6145C13.9519 14.2664 13.4551 13.2782 12.9529 12.5547C15.2572 5.26135 4.02734 5 4.02734 5C4.02734 5 4.35516 14.1154 10.22 13.9061C10.208 13.2957 10.1083 12.6786 9.96858 12.0999C9.87722 11.7226 9.76854 11.3628 9.65629 11.0307C9.2813 9.92935 8.85795 9.14758 8.85795 9.14758C9.28548 9.69177 9.66405 10.2111 9.99843 10.6992C11.1491 12.3765 11.7772 13.681 12.0692 14.37C12.7899 15.8368 13.4372 18.2494 13.4372 22.1922C13.4372 22.6385 13.8199 23 14.2893 23C14.7598 23 15.1419 22.6385 15.1419 22.1922C15.1419 20.9143 15.0768 19.7773 14.9592 18.763C15.2309 17.5253 15.6411 16.6468 16.0657 16.0246C16.3445 15.5206 16.8586 14.6573 17.5513 13.776C18.1681 12.992 18.9288 12.1932 19.7892 11.623C19.7892 11.623 18.0248 13.4734 17.9107 15.2847C22.7843 15.5256 22.9736 8.26172 22.9736 8.26172C22.9736 8.26172 14.0546 8.55022 15.5999 14.0413Z" fill="#FFEBB9"></path>
  </symbol>
  <symbol id="right-arrow" viewBox="0 0 18 16">
    <path d="M18.4571 8.70711C18.8476 8.31658 18.8476 7.68342 18.4571 7.29289L12.0931 0.928933C11.7026 0.538409 11.0695 0.538409 10.6789 0.928933C10.2884 1.31946 10.2884 1.95262 10.6789 2.34315L16.3358 8L10.6789 13.6569C10.2884 14.0474 10.2884 14.6805 10.6789 15.0711C11.0695 15.4616 11.7026 15.4616 12.0931 15.0711L18.4571 8.70711ZM0.25 9L17.75 9L17.75 7L0.25 7L0.25 9Z" fill="#1D2130"/>
  </symbol>
</svg>